# xmcd
#
# Track frame offsets: 
#        150
#        29691
#        43666
#        81473
#        100067
#        130278
#        146166
#        168905
#        187276
#        212807
#        235789
#        256182
#        274897
#        294175
#        312134
#
# Disc length: 4550 seconds
#
# Revision: 0
# Processed by: cddbd v1.5.2PL0 Copyright (c) Steve Scherf et al.
# Submitted via: ExactAudioCopy v0.99pb3
#
DISCID=e111c40f
DTITLE=Various Artist - Mark Hummel's Chicago Blues Party
DYEAR=2009
DGENRE=Blues
TTITLE0=Jimmy Rogers - Can't Keep From Worrying
TTITLE1=Jimmy Rogers - You're The One
TTITLE2=Jimmy Rogers - Tricky Woman
TTITLE3=Jimmy Rogers - Big Boss Man
TTITLE4=Jimmy Rogers - Ludella
TTITLE5=Eddie Taylor - Smokestack Lightning
TTITLE6=Eddie Taylor - Red Light
TTITLE7=Eddie Taylor - Trouble No More
TTITLE8=Eddie Taylor - Sunny Road
TTITLE9=Eddie Taylor - Dust My Broom
TTITLE10=Johnny Waters - Shake For Me
TTITLE11=Johnny Waters - How Much More Long
TTITLE12=Luther Tucker - Long Distance Call
TTITLE13=Luther Tucker - Gotta Make A Change
TTITLE14=Luther Tucker - Blue And Lonesome
EXTD=
EXTT0=
EXTT1=
EXTT2=
EXTT3=
EXTT4=
EXTT5=
EXTT6=
EXTT7=
EXTT8=
EXTT9=
EXTT10=
EXTT11=
EXTT12=
EXTT13=
EXTT14=
PLAYORDER=
